<svg width="1920" height="828" viewBox="0 0 1920 828" fill="none" xmlns="http://www.w3.org/2000/svg">
<g clip-path="url(#clip0)">
<rect x="1848" width="72" height="738" fill="#BDBDBD"/>
<rect x="1848" width="72" height="738" fill="url(#paint0_linear)"/>
<rect x="1765" y="1" width="83" height="771" fill="#BCBCBC"/>
<rect x="1765" y="1" width="83" height="771" fill="url(#paint1_linear)"/>
<rect x="1706" width="59" height="708" fill="#C2C2C2"/>
<rect x="1706" width="59" height="708" fill="url(#paint2_linear)"/>
<rect x="1647" y="1" width="59" height="790" fill="#BBBBBB"/>
<rect x="1647" y="1" width="59" height="790" fill="url(#paint3_linear)"/>
<rect x="1533" y="1" width="114" height="749" fill="#BCBCBC"/>
<rect x="1533" y="1" width="114" height="749" fill="url(#paint4_linear)"/>
<rect x="1461" y="1" width="72" height="779" fill="#BBBBBB"/>
<rect x="1461" y="1" width="72" height="779" fill="url(#paint5_linear)"/>
<rect x="1364" width="97" height="717" fill="#C0C0C0"/>
<rect x="1364" width="97" height="717" fill="url(#paint6_linear)"/>
<rect x="1322" y="1" width="42" height="807" fill="#BBBBBB"/>
<rect x="1322" y="1" width="42" height="807" fill="url(#paint7_linear)"/>
<rect x="1267" width="55" height="699" fill="#C2C2C2"/>
<rect x="1267" width="55" height="699" fill="url(#paint8_linear)"/>
<rect x="1140" width="127" height="780" fill="#BABABA"/>
<rect x="1140" width="127" height="780" fill="url(#paint9_linear)"/>
<rect x="1109" width="31" height="738" fill="#BCBCBC"/>
<rect x="1109" width="31" height="738" fill="url(#paint10_linear)"/>
<rect x="1018" y="1" width="91" height="716" fill="#BDBDBD"/>
<rect x="1018" y="1" width="91" height="716" fill="url(#paint11_linear)"/>
<rect x="946" width="72" height="757" fill="#BBBBBB"/>
<rect x="946" width="72" height="757" fill="url(#paint12_linear)"/>
<rect x="892" width="54" height="791" fill="#BBBBBB"/>
<rect x="892" width="54" height="791" fill="url(#paint13_linear)"/>
<rect x="859" y="1" width="33" height="827" fill="#B8B8B8"/>
<rect x="859" y="1" width="33" height="827" fill="url(#paint14_linear)"/>
<rect x="787" y="1" width="72" height="779" fill="#BBBBBB"/>
<rect x="787" y="1" width="72" height="779" fill="url(#paint15_linear)"/>
<rect x="647" y="1" width="141" height="737" fill="#BFBFBF"/>
<rect x="647" y="1" width="141" height="737" fill="url(#paint16_linear)"/>
<rect x="586" width="62" height="828" fill="#B9B9B9"/>
<rect x="586" width="62" height="828" fill="url(#paint17_linear)"/>
<rect x="520" y="1" width="66" height="716" fill="#C0C0C0"/>
<rect x="520" y="1" width="66" height="716" fill="url(#paint18_linear)"/>
<rect x="466" width="56" height="768" fill="#BDBDBD"/>
<rect x="466" width="56" height="768" fill="url(#paint19_linear)"/>
<rect x="363" y="1" width="105" height="807" fill="#BABABA"/>
<rect x="363" y="1" width="105" height="807" fill="url(#paint20_linear)"/>
<rect x="322" width="41" height="768" fill="#BBBBBB"/>
<rect x="322" width="41" height="768" fill="url(#paint21_linear)"/>
<rect x="265" width="57" height="699" fill="#C2C2C2"/>
<rect x="265" width="57" height="699" fill="url(#paint22_linear)"/>
<rect x="174" width="91" height="791" fill="#BCBCBC"/>
<rect x="174" width="91" height="791" fill="url(#paint23_linear)"/>
<rect x="134" width="40" height="828" fill="#BBBBBB"/>
<rect x="134" width="40" height="828" fill="url(#paint24_linear)"/>
<rect x="52" width="82" height="717" fill="#C1C1C1"/>
<rect x="52" width="82" height="717" fill="url(#paint25_linear)"/>
<rect y="1" width="52" height="797" fill="#BBBBBB"/>
<rect y="1" width="52" height="797" fill="url(#paint26_linear)"/>
</g>
<defs>
<linearGradient id="paint0_linear" x1="1884" y1="0" x2="1884" y2="738" gradientUnits="userSpaceOnUse">
<stop stop-color="#EEEEEE"/>
<stop offset="1" stop-color="white" stop-opacity="0"/>
</linearGradient>
<linearGradient id="paint1_linear" x1="1806.5" y1="1" x2="1806.5" y2="772" gradientUnits="userSpaceOnUse">
<stop stop-color="#EEEEEE"/>
<stop offset="1" stop-color="white" stop-opacity="0"/>
</linearGradient>
<linearGradient id="paint2_linear" x1="1735.5" y1="0" x2="1735.5" y2="708" gradientUnits="userSpaceOnUse">
<stop stop-color="#EEEEEE"/>
<stop offset="1" stop-color="white" stop-opacity="0"/>
</linearGradient>
<linearGradient id="paint3_linear" x1="1676.5" y1="1" x2="1676.5" y2="791" gradientUnits="userSpaceOnUse">
<stop stop-color="#EEEEEE"/>
<stop offset="1" stop-color="white" stop-opacity="0"/>
</linearGradient>
<linearGradient id="paint4_linear" x1="1590" y1="1" x2="1590" y2="750" gradientUnits="userSpaceOnUse">
<stop stop-color="#EEEEEE"/>
<stop offset="1" stop-color="white" stop-opacity="0"/>
</linearGradient>
<linearGradient id="paint5_linear" x1="1497" y1="1" x2="1497" y2="780" gradientUnits="userSpaceOnUse">
<stop stop-color="#EEEEEE"/>
<stop offset="1" stop-color="white" stop-opacity="0"/>
</linearGradient>
<linearGradient id="paint6_linear" x1="1412.5" y1="0" x2="1412.5" y2="717" gradientUnits="userSpaceOnUse">
<stop stop-color="#EEEEEE"/>
<stop offset="1" stop-color="white" stop-opacity="0"/>
</linearGradient>
<linearGradient id="paint7_linear" x1="1343" y1="1" x2="1343" y2="808" gradientUnits="userSpaceOnUse">
<stop stop-color="#EEEEEE"/>
<stop offset="1" stop-color="white" stop-opacity="0"/>
</linearGradient>
<linearGradient id="paint8_linear" x1="1294.5" y1="0" x2="1294.5" y2="699" gradientUnits="userSpaceOnUse">
<stop stop-color="#EEEEEE"/>
<stop offset="1" stop-color="white" stop-opacity="0"/>
</linearGradient>
<linearGradient id="paint9_linear" x1="1203.5" y1="0" x2="1203.5" y2="780" gradientUnits="userSpaceOnUse">
<stop stop-color="#EEEEEE"/>
<stop offset="1" stop-color="white" stop-opacity="0"/>
</linearGradient>
<linearGradient id="paint10_linear" x1="1124.5" y1="0" x2="1124.5" y2="738" gradientUnits="userSpaceOnUse">
<stop stop-color="#EEEEEE"/>
<stop offset="1" stop-color="white" stop-opacity="0"/>
</linearGradient>
<linearGradient id="paint11_linear" x1="1063.5" y1="1" x2="1063.5" y2="717" gradientUnits="userSpaceOnUse">
<stop stop-color="#EEEEEE"/>
<stop offset="1" stop-color="white" stop-opacity="0"/>
</linearGradient>
<linearGradient id="paint12_linear" x1="982" y1="0" x2="982" y2="757" gradientUnits="userSpaceOnUse">
<stop stop-color="#EEEEEE"/>
<stop offset="1" stop-color="white" stop-opacity="0"/>
</linearGradient>
<linearGradient id="paint13_linear" x1="919" y1="0" x2="919" y2="791" gradientUnits="userSpaceOnUse">
<stop stop-color="#EEEEEE"/>
<stop offset="1" stop-color="white" stop-opacity="0"/>
</linearGradient>
<linearGradient id="paint14_linear" x1="875.5" y1="1" x2="875.5" y2="828" gradientUnits="userSpaceOnUse">
<stop stop-color="#EEEEEE"/>
<stop offset="1" stop-color="white" stop-opacity="0"/>
</linearGradient>
<linearGradient id="paint15_linear" x1="823" y1="1" x2="823" y2="780" gradientUnits="userSpaceOnUse">
<stop stop-color="#EEEEEE"/>
<stop offset="1" stop-color="white" stop-opacity="0"/>
</linearGradient>
<linearGradient id="paint16_linear" x1="717.5" y1="1" x2="717.5" y2="738" gradientUnits="userSpaceOnUse">
<stop stop-color="#EEEEEE"/>
<stop offset="1" stop-color="white" stop-opacity="0"/>
</linearGradient>
<linearGradient id="paint17_linear" x1="617" y1="0" x2="617" y2="828" gradientUnits="userSpaceOnUse">
<stop stop-color="#EEEEEE"/>
<stop offset="1" stop-color="white" stop-opacity="0"/>
</linearGradient>
<linearGradient id="paint18_linear" x1="553" y1="1" x2="553" y2="717" gradientUnits="userSpaceOnUse">
<stop stop-color="#EEEEEE"/>
<stop offset="1" stop-color="white" stop-opacity="0"/>
</linearGradient>
<linearGradient id="paint19_linear" x1="494" y1="0" x2="494" y2="768" gradientUnits="userSpaceOnUse">
<stop stop-color="#EEEEEE"/>
<stop offset="1" stop-color="white" stop-opacity="0"/>
</linearGradient>
<linearGradient id="paint20_linear" x1="415.5" y1="1" x2="415.5" y2="808" gradientUnits="userSpaceOnUse">
<stop stop-color="#EEEEEE"/>
<stop offset="1" stop-color="white" stop-opacity="0"/>
</linearGradient>
<linearGradient id="paint21_linear" x1="342.5" y1="0" x2="342.5" y2="768" gradientUnits="userSpaceOnUse">
<stop stop-color="#EEEEEE"/>
<stop offset="1" stop-color="white" stop-opacity="0"/>
</linearGradient>
<linearGradient id="paint22_linear" x1="293.5" y1="0" x2="293.5" y2="699" gradientUnits="userSpaceOnUse">
<stop stop-color="#EEEEEE"/>
<stop offset="1" stop-color="white" stop-opacity="0"/>
</linearGradient>
<linearGradient id="paint23_linear" x1="219.5" y1="0" x2="219.5" y2="791" gradientUnits="userSpaceOnUse">
<stop stop-color="#EEEEEE"/>
<stop offset="1" stop-color="white" stop-opacity="0"/>
</linearGradient>
<linearGradient id="paint24_linear" x1="154" y1="0" x2="154" y2="828" gradientUnits="userSpaceOnUse">
<stop stop-color="#EEEEEE"/>
<stop offset="1" stop-color="white" stop-opacity="0"/>
</linearGradient>
<linearGradient id="paint25_linear" x1="93" y1="0" x2="93" y2="717" gradientUnits="userSpaceOnUse">
<stop stop-color="#EEEEEE"/>
<stop offset="1" stop-color="white" stop-opacity="0"/>
</linearGradient>
<linearGradient id="paint26_linear" x1="26" y1="1" x2="26" y2="798" gradientUnits="userSpaceOnUse">
<stop stop-color="#EEEEEE"/>
<stop offset="1" stop-color="white" stop-opacity="0"/>
</linearGradient>
<clipPath id="clip0">
<rect width="1920" height="828" fill="white"/>
</clipPath>
</defs>
</svg>
