<svg width="828" height="828" viewBox="0 0 828 828" fill="none" xmlns="http://www.w3.org/2000/svg">
<g clip-path="url(#clip0)">
<rect x="787" y="1" width="72" height="779" fill="#BBBBBB"/>
<rect x="787" y="1" width="72" height="779" fill="url(#paint0_linear)"/>
<rect x="647" y="1" width="141" height="737" fill="#BFBFBF"/>
<rect x="647" y="1" width="141" height="737" fill="url(#paint1_linear)"/>
<rect x="586" width="62" height="828" fill="#B9B9B9"/>
<rect x="586" width="62" height="828" fill="url(#paint2_linear)"/>
<rect x="520" y="1" width="66" height="716" fill="#C0C0C0"/>
<rect x="520" y="1" width="66" height="716" fill="url(#paint3_linear)"/>
<rect x="466" width="56" height="768" fill="#BDBDBD"/>
<rect x="466" width="56" height="768" fill="url(#paint4_linear)"/>
<rect x="363" y="1" width="105" height="807" fill="#BABABA"/>
<rect x="363" y="1" width="105" height="807" fill="url(#paint5_linear)"/>
<rect x="322" width="41" height="768" fill="#BBBBBB"/>
<rect x="322" width="41" height="768" fill="url(#paint6_linear)"/>
<rect x="265" width="57" height="699" fill="#C2C2C2"/>
<rect x="265" width="57" height="699" fill="url(#paint7_linear)"/>
<rect x="174" width="91" height="791" fill="#BCBCBC"/>
<rect x="174" width="91" height="791" fill="url(#paint8_linear)"/>
<rect x="134" width="40" height="828" fill="#BBBBBB"/>
<rect x="134" width="40" height="828" fill="url(#paint9_linear)"/>
<rect x="52" width="82" height="717" fill="#C1C1C1"/>
<rect x="52" width="82" height="717" fill="url(#paint10_linear)"/>
<rect x="-12" y="1" width="64" height="797" fill="#BBBBBB"/>
<rect x="-12" y="1" width="64" height="797" fill="url(#paint11_linear)"/>
</g>
<defs>
<linearGradient id="paint0_linear" x1="823" y1="1" x2="823" y2="780" gradientUnits="userSpaceOnUse">
<stop stop-color="#EEEEEE"/>
<stop offset="1" stop-color="white" stop-opacity="0"/>
</linearGradient>
<linearGradient id="paint1_linear" x1="717.5" y1="1" x2="717.5" y2="738" gradientUnits="userSpaceOnUse">
<stop stop-color="#EEEEEE"/>
<stop offset="1" stop-color="white" stop-opacity="0"/>
</linearGradient>
<linearGradient id="paint2_linear" x1="617" y1="0" x2="617" y2="828" gradientUnits="userSpaceOnUse">
<stop stop-color="#EEEEEE"/>
<stop offset="1" stop-color="white" stop-opacity="0"/>
</linearGradient>
<linearGradient id="paint3_linear" x1="553" y1="1" x2="553" y2="717" gradientUnits="userSpaceOnUse">
<stop stop-color="#EEEEEE"/>
<stop offset="1" stop-color="white" stop-opacity="0"/>
</linearGradient>
<linearGradient id="paint4_linear" x1="494" y1="0" x2="494" y2="768" gradientUnits="userSpaceOnUse">
<stop stop-color="#EEEEEE"/>
<stop offset="1" stop-color="white" stop-opacity="0"/>
</linearGradient>
<linearGradient id="paint5_linear" x1="415.5" y1="1" x2="415.5" y2="808" gradientUnits="userSpaceOnUse">
<stop stop-color="#EEEEEE"/>
<stop offset="1" stop-color="white" stop-opacity="0"/>
</linearGradient>
<linearGradient id="paint6_linear" x1="342.5" y1="0" x2="342.5" y2="768" gradientUnits="userSpaceOnUse">
<stop stop-color="#EEEEEE"/>
<stop offset="1" stop-color="white" stop-opacity="0"/>
</linearGradient>
<linearGradient id="paint7_linear" x1="293.5" y1="0" x2="293.5" y2="699" gradientUnits="userSpaceOnUse">
<stop stop-color="#EEEEEE"/>
<stop offset="1" stop-color="white" stop-opacity="0"/>
</linearGradient>
<linearGradient id="paint8_linear" x1="219.5" y1="0" x2="219.5" y2="791" gradientUnits="userSpaceOnUse">
<stop stop-color="#EEEEEE"/>
<stop offset="1" stop-color="white" stop-opacity="0"/>
</linearGradient>
<linearGradient id="paint9_linear" x1="154" y1="0" x2="154" y2="828" gradientUnits="userSpaceOnUse">
<stop stop-color="#EEEEEE"/>
<stop offset="1" stop-color="white" stop-opacity="0"/>
</linearGradient>
<linearGradient id="paint10_linear" x1="93" y1="0" x2="93" y2="717" gradientUnits="userSpaceOnUse">
<stop stop-color="#EEEEEE"/>
<stop offset="1" stop-color="white" stop-opacity="0"/>
</linearGradient>
<linearGradient id="paint11_linear" x1="20" y1="1" x2="20" y2="798" gradientUnits="userSpaceOnUse">
<stop stop-color="#EEEEEE"/>
<stop offset="1" stop-color="white" stop-opacity="0"/>
</linearGradient>
<clipPath id="clip0">
<rect width="828" height="828" fill="white"/>
</clipPath>
</defs>
</svg>
