<svg xmlns="http://www.w3.org/2000/svg" width="1400" height="980"><path fill="#313282" d="M0 0h1400v980H0z"/><path fill="#191345" d="M1400 18.791l-307.338 307.336 93.9.227L1400 112.911zM0 147.112h111.441L0 258.556z"/><path fill="#ED0677" d="M0 537.609L193.072 344.54h54.72L0 592.332z"/><path fill="#A5CBEC" d="M0 427.896L101.106 326.79h127.112L0 555.008zM470.775 0L292.977 177.8l-189.395-.009L281.372 0z"/><path fill="#ED0677" d="M102.395 980l504.73-504.728h40.488L142.885 980z"/><path fill="#191345" d="M694.59 387.931l-57.165 57.041h40.488l57.167-57.041z"/><path fill="#ED0677" d="M636.319 0l-273.74 273.742h-54.722L581.598 0z"/><path fill="#191345" d="M458.522 177.797l-95.943 95.945h-54.722l95.949-95.948z"/><path fill="#A5CBEC" d="M399.627 236.694l-37.048 37.048h-54.722l37.053-37.052z"/><path fill="#191345" d="M0 942.84l467.571-467.568h15.754L0 958.596z"/><path fill="#A5CBEC" d="M483.325 475.272h-15.754l106.461-106.459h15.754z"/><path fill="#0088CE" d="M0 353.78L325.116 28.663h29.132L0 382.912zM0 922.77V735.949l115.807-115.803 186.82.002z"/><path fill="#191345" d="M713.924 0L93.779 620.146H36.083L656.229 0zM126.203 980L328.03 778.173h113.458L239.661 980zM670.583 730.006L792.94 607.647h113.458L784.041 730.006z"/><path fill="#0088CE" d="M324.535 676.343L20.879 980h16.255l303.657-303.657z"/><path fill="#A5CBEC" d="M445.563 268.362L315.481 398.446l-57.696-.003 130.082-130.081zM762.318 0L142.174 620.146h-26.417L735.901 0z"/><path fill="#ED0677" d="M762.318 0L463.033 299.288h-26.417L735.901 0z"/><path fill="#A5CBEC" d="M660.499 789.874l267.233-267.235h-14.474L646.019 789.874zM175.928 980l288.095-288.092h23.52L199.449 980zM0 314.012l93.831-93.829h21.709L0 335.723z"/><path fill="#191345" d="M240.621 0L118.543 122.08H104.68L226.759 0zM555.008 0L163.192 391.819l-127.109-.007L427.896 0z"/><path fill="#A5CBEC" d="M79.762 0L0 79.765v93.839L173.601 0z"/><path fill="#ED0677" d="M433.316 86.791L73.708 446.4h-21.71l359.61-359.609zM842.354 422.465L698.03 566.789h-8.714l144.323-144.324z"/><path fill="#191345" d="M276.105 980h8.714l355.27-355.271h-8.715zM1400 195.91l-331.836 331.836h8.715L1400 204.625zM1144.666 522.639l-123.207 123.208h8.715l123.207-123.208zM687.306 980h8.715l57.774-57.775h-8.715z"/><path fill="#ED0677" d="M539.568 980L1400 119.568v-8.714L530.855 980z"/><path fill="#0088CE" d="M1400 689.025v-8.713L1100.312 980h8.713z"/><path fill="#ED0677" d="M512.441 0l-74.873 74.878h-10.26L502.182 0z"/><path fill="#0088CE" d="M404.958 210.059H394.7L546.588 58.17h10.259z"/><path fill="#191345" d="M179.852 227.732h-10.259l98.771-98.771h10.259z"/><path fill="#ED0677" d="M142.535 122.08h-10.259l69.043-69.045h10.259z"/><path fill="#A5CBEC" d="M579.326 475.272L336.878 717.721h-8.713l242.447-242.449z"/><path fill="#0088CE" d="M825.58 475.272l121.65-121.649h-8.712L816.867 475.272z"/><path fill="#191345" d="M311.365 313.935l-82.278 82.279h-8.714l82.278-82.279z"/><path fill="#A5CBEC" d="M0 625.301l229.087-229.087h-8.714L0 616.587z"/><path fill="#ED0677" d="M13.664 391.812l75.682-75.681h8.713l-75.683 75.681z"/><path fill="#A5CBEC" d="M433.316 86.791l-52.952 52.958h-21.711l52.955-52.958z"/><path fill="#0088CE" d="M745.626 257.337l-310.89 310.89h-21.71l310.892-310.89z"/><path fill="#191345" d="M1013.635 170.254L816.51 367.378h-13.767L999.87 170.254z"/><path fill="#A5CBEC" d="M760.568 170.254l-57.486 57.485h-13.766l57.487-57.485z"/><path fill="#ED0677" d="M1072.748 0L929.994 142.755h-11.033L1061.717 0zM0 150.27l91.001-91.003h54.721L0 204.99z"/><path fill="#0088CE" d="M123.901 0L64.635 59.267H42.924L102.191 0z"/><path fill="#A5CBEC" d="M0 896.547l228.658-228.658h9.368L0 905.918z"/><path fill="#ED0677" d="M254.153 980l96.448-96.445h9.368L263.522 980z"/><path fill="#A5CBEC" d="M0 283.71l93.662-93.662h9.368L0 293.077z"/><path fill="#0088CE" d="M0 174.238l59.09-59.091h9.368L0 183.604zM0 467.133L467.136 0h10.463L0 477.601z"/><path fill="#191345" d="M343.569 530.469L152.71 721.332H99.741l190.864-190.863zM996.188 980L1400 576.181v-68.447L927.732 980z"/><path fill="#ED0677" d="M152.708 721.332l-57.068 57.07H42.67l57.071-57.07zM430.933 443.108l-57.069 57.07h-52.969l57.07-57.07z"/><path fill="#A5CBEC" d="M478.426 395.616l-29.381 29.383h-52.969l29.382-29.383z"/><path fill="#191345" d="M615.879 258.164l-91.947 91.947h-52.969l91.948-91.947z"/><path fill="#ED0677" d="M335.724 0l-87.87 87.872h-21.711L314.014 0z"/><path fill="#191345" d="M219.364 116.358L73.708 262.016h-21.71l145.657-145.658z"/><path fill="#0088CE" d="M395.076 318.848L264.995 448.932h-57.697L337.38 318.848z"/><path fill="#ED0677" d="M0 688.768l127.887-127.889h8.617L0 697.383z"/><path fill="#A5CBEC" d="M449.336 0L271.539 177.8h-7.035L442.303 0z"/><path fill="#191345" d="M0 514.607l44.4-44.403h60.712L0 575.316z"/><path fill="#A5CBEC" d="M0 764.885l63.101-63.1H86.62L0 788.406z"/></svg>