<svg width="64" height="64" viewBox="0 0 64 64" fill="none" xmlns="http://www.w3.org/2000/svg">
<g clip-path="url(#clip0)">
<path d="M46.1617 -2.35555e-07C40.0649 -2.35555e-07 34.8547 4.27319 31.9927 7.21823C29.1277 4.27319 23.9321 -2.35555e-07 17.8353 -2.35555e-07C7.33844 -2.35555e-07 -2.99809e-07 7.2009 -2.99809e-07 17.5056C-2.99809e-07 28.8671 9.10847 36.2124 17.9175 43.3122C22.077 46.6673 26.3861 50.132 29.6884 53.9837C30.2432 54.6275 31.0563 55 31.9105 55H32.0807C32.9349 55 33.748 54.6275 34.3057 53.9837C37.611 50.1378 41.9172 46.6702 46.0766 43.3151C54.8886 36.2153 64 28.8729 64 17.5085C63.9971 7.2009 56.6645 -2.35555e-07 46.1617 -2.35555e-07Z" fill="#000000"/>
</g>
<defs>
<clipPath id="clip0">
<rect width="64" height="64" fill="white"/>
</clipPath>
</defs>
</svg>
