<svg width="64" height="64" viewBox="0 0 64 64" fill="none" xmlns="http://www.w3.org/2000/svg"><path d="M17.8383 51.5709C23.9351 51.5709 29.1453 47.5641 32.0073 44.8027C34.8723 47.5641 40.0679 51.5709 46.1647 51.5709C56.6616 51.5709 64 44.819 64 35.1567C64 24.5036 54.8915 17.6162 46.0825 10.9591C41.923 7.8132 37.6139 4.56447 34.3116 0.952961C33.7568 0.349239 32.9437 0 32.0895 0H31.9193C31.0651 0 30.252 0.349239 29.6943 0.952961C26.389 4.55905 22.0828 7.81049 17.9234 10.9563C9.11141 17.6135 0 24.4981 0 35.154C0.00293538 44.819 7.3355 51.5709 17.8383 51.5709Z" fill="black"/><path d="M21.1083 64C28.3704 62.798 35.6883 62.8494 42.8947 64C35.6883 54.0047 32.0015 34.6721 32.0015 34.6721C32.0015 34.6721 28.3704 54.0047 21.1083 64Z" fill="black"/></svg>
